%TF.GenerationSoftware,KiCad,Pcbnew,10.0.3*%
%TF.CreationDate,2026-09-17T20:57:44-07:00*%
%TF.ProjectId,esp32_nodemcu,65737033-325f-46e6-9f64-656d63752e6b,rev?*%
%TF.SameCoordinates,Original*%
%TF.FileFunction,Legend,Top*%
%TF.FilePolarity,Positive*%
%FSLAX46Y46*%
G04 Gerber Fmt 4.6, Leading zero omitted, Abs format (unit mm)*
G04 Created by KiCad (PCBNEW 10.0.3) date 2026-09-17 20:57:44*
%MOMM*%
%LPD*%
G01*
G04 APERTURE LIST*
%ADD10C,0.100000*%
%ADD11C,0.150000*%
%ADD12C,0.120000*%
%ADD13C,0.000000*%
G04 APERTURE END LIST*
D10*
X229597824Y-129961876D02*
X245597824Y-129961876D01*
X245597824Y-139961876D01*
X229597824Y-139961876D01*
X229597824Y-129961876D01*
X184928295Y-134285714D02*
X184928295Y-134761904D01*
X184642580Y-134190476D02*
X185642580Y-134523809D01*
X185642580Y-134523809D02*
X184642580Y-134857142D01*
X185642580Y-135095238D02*
X185642580Y-135714285D01*
X185642580Y-135714285D02*
X185261628Y-135380952D01*
X185261628Y-135380952D02*
X185261628Y-135523809D01*
X185261628Y-135523809D02*
X185214009Y-135619047D01*
X185214009Y-135619047D02*
X185166390Y-135666666D01*
X185166390Y-135666666D02*
X185071152Y-135714285D01*
X185071152Y-135714285D02*
X184833057Y-135714285D01*
X184833057Y-135714285D02*
X184737819Y-135666666D01*
X184737819Y-135666666D02*
X184690200Y-135619047D01*
X184690200Y-135619047D02*
X184642580Y-135523809D01*
X184642580Y-135523809D02*
X184642580Y-135238095D01*
X184642580Y-135238095D02*
X184690200Y-135142857D01*
X184690200Y-135142857D02*
X184737819Y-135095238D01*
D11*
X241649115Y-165386580D02*
X241601496Y-165434200D01*
X241601496Y-165434200D02*
X241458639Y-165481819D01*
X241458639Y-165481819D02*
X241363401Y-165481819D01*
X241363401Y-165481819D02*
X241220544Y-165434200D01*
X241220544Y-165434200D02*
X241125306Y-165338961D01*
X241125306Y-165338961D02*
X241077687Y-165243723D01*
X241077687Y-165243723D02*
X241030068Y-165053247D01*
X241030068Y-165053247D02*
X241030068Y-164910390D01*
X241030068Y-164910390D02*
X241077687Y-164719914D01*
X241077687Y-164719914D02*
X241125306Y-164624676D01*
X241125306Y-164624676D02*
X241220544Y-164529438D01*
X241220544Y-164529438D02*
X241363401Y-164481819D01*
X241363401Y-164481819D02*
X241458639Y-164481819D01*
X241458639Y-164481819D02*
X241601496Y-164529438D01*
X241601496Y-164529438D02*
X241649115Y-164577057D01*
X242601496Y-165481819D02*
X242030068Y-165481819D01*
X242315782Y-165481819D02*
X242315782Y-164481819D01*
X242315782Y-164481819D02*
X242220544Y-164624676D01*
X242220544Y-164624676D02*
X242125306Y-164719914D01*
X242125306Y-164719914D02*
X242030068Y-164767533D01*
X170774819Y-162333333D02*
X171489104Y-162333333D01*
X171489104Y-162333333D02*
X171631961Y-162380952D01*
X171631961Y-162380952D02*
X171727200Y-162476190D01*
X171727200Y-162476190D02*
X171774819Y-162619047D01*
X171774819Y-162619047D02*
X171774819Y-162714285D01*
X170774819Y-161380952D02*
X170774819Y-161857142D01*
X170774819Y-161857142D02*
X171251009Y-161904761D01*
X171251009Y-161904761D02*
X171203390Y-161857142D01*
X171203390Y-161857142D02*
X171155771Y-161761904D01*
X171155771Y-161761904D02*
X171155771Y-161523809D01*
X171155771Y-161523809D02*
X171203390Y-161428571D01*
X171203390Y-161428571D02*
X171251009Y-161380952D01*
X171251009Y-161380952D02*
X171346247Y-161333333D01*
X171346247Y-161333333D02*
X171584342Y-161333333D01*
X171584342Y-161333333D02*
X171679580Y-161380952D01*
X171679580Y-161380952D02*
X171727200Y-161428571D01*
X171727200Y-161428571D02*
X171774819Y-161523809D01*
X171774819Y-161523809D02*
X171774819Y-161761904D01*
X171774819Y-161761904D02*
X171727200Y-161857142D01*
X171727200Y-161857142D02*
X171679580Y-161904761D01*
X209190476Y-118304819D02*
X209190476Y-119019104D01*
X209190476Y-119019104D02*
X209142857Y-119161961D01*
X209142857Y-119161961D02*
X209047619Y-119257200D01*
X209047619Y-119257200D02*
X208904762Y-119304819D01*
X208904762Y-119304819D02*
X208809524Y-119304819D01*
X210190476Y-119304819D02*
X209619048Y-119304819D01*
X209904762Y-119304819D02*
X209904762Y-118304819D01*
X209904762Y-118304819D02*
X209809524Y-118447676D01*
X209809524Y-118447676D02*
X209714286Y-118542914D01*
X209714286Y-118542914D02*
X209619048Y-118590533D01*
X211047619Y-118638152D02*
X211047619Y-119304819D01*
X210809524Y-118257200D02*
X210571429Y-118971485D01*
X210571429Y-118971485D02*
X211190476Y-118971485D01*
X164190476Y-173994819D02*
X164190476Y-174709104D01*
X164190476Y-174709104D02*
X164142857Y-174851961D01*
X164142857Y-174851961D02*
X164047619Y-174947200D01*
X164047619Y-174947200D02*
X163904762Y-174994819D01*
X163904762Y-174994819D02*
X163809524Y-174994819D01*
X165190476Y-174994819D02*
X164619048Y-174994819D01*
X164904762Y-174994819D02*
X164904762Y-173994819D01*
X164904762Y-173994819D02*
X164809524Y-174137676D01*
X164809524Y-174137676D02*
X164714286Y-174232914D01*
X164714286Y-174232914D02*
X164619048Y-174280533D01*
X165523810Y-173994819D02*
X166190476Y-173994819D01*
X166190476Y-173994819D02*
X165761905Y-174994819D01*
D10*
X253957419Y-135333333D02*
X254671704Y-135333333D01*
X254671704Y-135333333D02*
X254814561Y-135380952D01*
X254814561Y-135380952D02*
X254909800Y-135476190D01*
X254909800Y-135476190D02*
X254957419Y-135619047D01*
X254957419Y-135619047D02*
X254957419Y-135714285D01*
X254957419Y-134333333D02*
X254957419Y-134904761D01*
X254957419Y-134619047D02*
X253957419Y-134619047D01*
X253957419Y-134619047D02*
X254100276Y-134714285D01*
X254100276Y-134714285D02*
X254195514Y-134809523D01*
X254195514Y-134809523D02*
X254243133Y-134904761D01*
X209285714Y-99111704D02*
X209761904Y-99111704D01*
X209190476Y-99397419D02*
X209523809Y-98397419D01*
X209523809Y-98397419D02*
X209857142Y-99397419D01*
X210142857Y-98492657D02*
X210190476Y-98445038D01*
X210190476Y-98445038D02*
X210285714Y-98397419D01*
X210285714Y-98397419D02*
X210523809Y-98397419D01*
X210523809Y-98397419D02*
X210619047Y-98445038D01*
X210619047Y-98445038D02*
X210666666Y-98492657D01*
X210666666Y-98492657D02*
X210714285Y-98587895D01*
X210714285Y-98587895D02*
X210714285Y-98683133D01*
X210714285Y-98683133D02*
X210666666Y-98825990D01*
X210666666Y-98825990D02*
X210095238Y-99397419D01*
X210095238Y-99397419D02*
X210714285Y-99397419D01*
D11*
X234574833Y-166790819D02*
X234241500Y-166314628D01*
X234003405Y-166790819D02*
X234003405Y-165790819D01*
X234003405Y-165790819D02*
X234384357Y-165790819D01*
X234384357Y-165790819D02*
X234479595Y-165838438D01*
X234479595Y-165838438D02*
X234527214Y-165886057D01*
X234527214Y-165886057D02*
X234574833Y-165981295D01*
X234574833Y-165981295D02*
X234574833Y-166124152D01*
X234574833Y-166124152D02*
X234527214Y-166219390D01*
X234527214Y-166219390D02*
X234479595Y-166267009D01*
X234479595Y-166267009D02*
X234384357Y-166314628D01*
X234384357Y-166314628D02*
X234003405Y-166314628D01*
X234908167Y-165790819D02*
X235527214Y-165790819D01*
X235527214Y-165790819D02*
X235193881Y-166171771D01*
X235193881Y-166171771D02*
X235336738Y-166171771D01*
X235336738Y-166171771D02*
X235431976Y-166219390D01*
X235431976Y-166219390D02*
X235479595Y-166267009D01*
X235479595Y-166267009D02*
X235527214Y-166362247D01*
X235527214Y-166362247D02*
X235527214Y-166600342D01*
X235527214Y-166600342D02*
X235479595Y-166695580D01*
X235479595Y-166695580D02*
X235431976Y-166743200D01*
X235431976Y-166743200D02*
X235336738Y-166790819D01*
X235336738Y-166790819D02*
X235051024Y-166790819D01*
X235051024Y-166790819D02*
X234955786Y-166743200D01*
X234955786Y-166743200D02*
X234908167Y-166695580D01*
X242494820Y-173308666D02*
X242494820Y-173784856D01*
X242494820Y-173784856D02*
X241494820Y-173784856D01*
X242494820Y-172451523D02*
X242494820Y-173022951D01*
X242494820Y-172737237D02*
X241494820Y-172737237D01*
X241494820Y-172737237D02*
X241637677Y-172832475D01*
X241637677Y-172832475D02*
X241732915Y-172927713D01*
X241732915Y-172927713D02*
X241780534Y-173022951D01*
X170774819Y-108333333D02*
X171489104Y-108333333D01*
X171489104Y-108333333D02*
X171631961Y-108380952D01*
X171631961Y-108380952D02*
X171727200Y-108476190D01*
X171727200Y-108476190D02*
X171774819Y-108619047D01*
X171774819Y-108619047D02*
X171774819Y-108714285D01*
X170774819Y-107428571D02*
X170774819Y-107619047D01*
X170774819Y-107619047D02*
X170822438Y-107714285D01*
X170822438Y-107714285D02*
X170870057Y-107761904D01*
X170870057Y-107761904D02*
X171012914Y-107857142D01*
X171012914Y-107857142D02*
X171203390Y-107904761D01*
X171203390Y-107904761D02*
X171584342Y-107904761D01*
X171584342Y-107904761D02*
X171679580Y-107857142D01*
X171679580Y-107857142D02*
X171727200Y-107809523D01*
X171727200Y-107809523D02*
X171774819Y-107714285D01*
X171774819Y-107714285D02*
X171774819Y-107523809D01*
X171774819Y-107523809D02*
X171727200Y-107428571D01*
X171727200Y-107428571D02*
X171679580Y-107380952D01*
X171679580Y-107380952D02*
X171584342Y-107333333D01*
X171584342Y-107333333D02*
X171346247Y-107333333D01*
X171346247Y-107333333D02*
X171251009Y-107380952D01*
X171251009Y-107380952D02*
X171203390Y-107428571D01*
X171203390Y-107428571D02*
X171155771Y-107523809D01*
X171155771Y-107523809D02*
X171155771Y-107714285D01*
X171155771Y-107714285D02*
X171203390Y-107809523D01*
X171203390Y-107809523D02*
X171251009Y-107857142D01*
X171251009Y-107857142D02*
X171346247Y-107904761D01*
D10*
X210714285Y-135328295D02*
X210238095Y-135328295D01*
X210809523Y-135042580D02*
X210476190Y-136042580D01*
X210476190Y-136042580D02*
X210142857Y-135042580D01*
X209285714Y-135042580D02*
X209857142Y-135042580D01*
X209571428Y-135042580D02*
X209571428Y-136042580D01*
X209571428Y-136042580D02*
X209666666Y-135899723D01*
X209666666Y-135899723D02*
X209761904Y-135804485D01*
X209761904Y-135804485D02*
X209857142Y-135756866D01*
D11*
X164190476Y-119994819D02*
X164190476Y-120709104D01*
X164190476Y-120709104D02*
X164142857Y-120851961D01*
X164142857Y-120851961D02*
X164047619Y-120947200D01*
X164047619Y-120947200D02*
X163904762Y-120994819D01*
X163904762Y-120994819D02*
X163809524Y-120994819D01*
X165190476Y-120994819D02*
X164619048Y-120994819D01*
X164904762Y-120994819D02*
X164904762Y-119994819D01*
X164904762Y-119994819D02*
X164809524Y-120137676D01*
X164809524Y-120137676D02*
X164714286Y-120232914D01*
X164714286Y-120232914D02*
X164619048Y-120280533D01*
X165761905Y-120423390D02*
X165666667Y-120375771D01*
X165666667Y-120375771D02*
X165619048Y-120328152D01*
X165619048Y-120328152D02*
X165571429Y-120232914D01*
X165571429Y-120232914D02*
X165571429Y-120185295D01*
X165571429Y-120185295D02*
X165619048Y-120090057D01*
X165619048Y-120090057D02*
X165666667Y-120042438D01*
X165666667Y-120042438D02*
X165761905Y-119994819D01*
X165761905Y-119994819D02*
X165952381Y-119994819D01*
X165952381Y-119994819D02*
X166047619Y-120042438D01*
X166047619Y-120042438D02*
X166095238Y-120090057D01*
X166095238Y-120090057D02*
X166142857Y-120185295D01*
X166142857Y-120185295D02*
X166142857Y-120232914D01*
X166142857Y-120232914D02*
X166095238Y-120328152D01*
X166095238Y-120328152D02*
X166047619Y-120375771D01*
X166047619Y-120375771D02*
X165952381Y-120423390D01*
X165952381Y-120423390D02*
X165761905Y-120423390D01*
X165761905Y-120423390D02*
X165666667Y-120471009D01*
X165666667Y-120471009D02*
X165619048Y-120518628D01*
X165619048Y-120518628D02*
X165571429Y-120613866D01*
X165571429Y-120613866D02*
X165571429Y-120804342D01*
X165571429Y-120804342D02*
X165619048Y-120899580D01*
X165619048Y-120899580D02*
X165666667Y-120947200D01*
X165666667Y-120947200D02*
X165761905Y-120994819D01*
X165761905Y-120994819D02*
X165952381Y-120994819D01*
X165952381Y-120994819D02*
X166047619Y-120947200D01*
X166047619Y-120947200D02*
X166095238Y-120899580D01*
X166095238Y-120899580D02*
X166142857Y-120804342D01*
X166142857Y-120804342D02*
X166142857Y-120613866D01*
X166142857Y-120613866D02*
X166095238Y-120518628D01*
X166095238Y-120518628D02*
X166047619Y-120471009D01*
X166047619Y-120471009D02*
X165952381Y-120423390D01*
X248134819Y-162333333D02*
X248849104Y-162333333D01*
X248849104Y-162333333D02*
X248991961Y-162380952D01*
X248991961Y-162380952D02*
X249087200Y-162476190D01*
X249087200Y-162476190D02*
X249134819Y-162619047D01*
X249134819Y-162619047D02*
X249134819Y-162714285D01*
X248468152Y-161428571D02*
X249134819Y-161428571D01*
X248087200Y-161666666D02*
X248801485Y-161904761D01*
X248801485Y-161904761D02*
X248801485Y-161285714D01*
X243956666Y-128264819D02*
X243956666Y-128979104D01*
X243956666Y-128979104D02*
X243909047Y-129121961D01*
X243909047Y-129121961D02*
X243813809Y-129217200D01*
X243813809Y-129217200D02*
X243670952Y-129264819D01*
X243670952Y-129264819D02*
X243575714Y-129264819D01*
X244575714Y-128693390D02*
X244480476Y-128645771D01*
X244480476Y-128645771D02*
X244432857Y-128598152D01*
X244432857Y-128598152D02*
X244385238Y-128502914D01*
X244385238Y-128502914D02*
X244385238Y-128455295D01*
X244385238Y-128455295D02*
X244432857Y-128360057D01*
X244432857Y-128360057D02*
X244480476Y-128312438D01*
X244480476Y-128312438D02*
X244575714Y-128264819D01*
X244575714Y-128264819D02*
X244766190Y-128264819D01*
X244766190Y-128264819D02*
X244861428Y-128312438D01*
X244861428Y-128312438D02*
X244909047Y-128360057D01*
X244909047Y-128360057D02*
X244956666Y-128455295D01*
X244956666Y-128455295D02*
X244956666Y-128502914D01*
X244956666Y-128502914D02*
X244909047Y-128598152D01*
X244909047Y-128598152D02*
X244861428Y-128645771D01*
X244861428Y-128645771D02*
X244766190Y-128693390D01*
X244766190Y-128693390D02*
X244575714Y-128693390D01*
X244575714Y-128693390D02*
X244480476Y-128741009D01*
X244480476Y-128741009D02*
X244432857Y-128788628D01*
X244432857Y-128788628D02*
X244385238Y-128883866D01*
X244385238Y-128883866D02*
X244385238Y-129074342D01*
X244385238Y-129074342D02*
X244432857Y-129169580D01*
X244432857Y-129169580D02*
X244480476Y-129217200D01*
X244480476Y-129217200D02*
X244575714Y-129264819D01*
X244575714Y-129264819D02*
X244766190Y-129264819D01*
X244766190Y-129264819D02*
X244861428Y-129217200D01*
X244861428Y-129217200D02*
X244909047Y-129169580D01*
X244909047Y-129169580D02*
X244956666Y-129074342D01*
X244956666Y-129074342D02*
X244956666Y-128883866D01*
X244956666Y-128883866D02*
X244909047Y-128788628D01*
X244909047Y-128788628D02*
X244861428Y-128741009D01*
X244861428Y-128741009D02*
X244766190Y-128693390D01*
X254190476Y-148914819D02*
X254190476Y-149629104D01*
X254190476Y-149629104D02*
X254142857Y-149771961D01*
X254142857Y-149771961D02*
X254047619Y-149867200D01*
X254047619Y-149867200D02*
X253904762Y-149914819D01*
X253904762Y-149914819D02*
X253809524Y-149914819D01*
X255190476Y-149914819D02*
X254619048Y-149914819D01*
X254904762Y-149914819D02*
X254904762Y-148914819D01*
X254904762Y-148914819D02*
X254809524Y-149057676D01*
X254809524Y-149057676D02*
X254714286Y-149152914D01*
X254714286Y-149152914D02*
X254619048Y-149200533D01*
X256047619Y-148914819D02*
X255857143Y-148914819D01*
X255857143Y-148914819D02*
X255761905Y-148962438D01*
X255761905Y-148962438D02*
X255714286Y-149010057D01*
X255714286Y-149010057D02*
X255619048Y-149152914D01*
X255619048Y-149152914D02*
X255571429Y-149343390D01*
X255571429Y-149343390D02*
X255571429Y-149724342D01*
X255571429Y-149724342D02*
X255619048Y-149819580D01*
X255619048Y-149819580D02*
X255666667Y-149867200D01*
X255666667Y-149867200D02*
X255761905Y-149914819D01*
X255761905Y-149914819D02*
X255952381Y-149914819D01*
X255952381Y-149914819D02*
X256047619Y-149867200D01*
X256047619Y-149867200D02*
X256095238Y-149819580D01*
X256095238Y-149819580D02*
X256142857Y-149724342D01*
X256142857Y-149724342D02*
X256142857Y-149486247D01*
X256142857Y-149486247D02*
X256095238Y-149391009D01*
X256095238Y-149391009D02*
X256047619Y-149343390D01*
X256047619Y-149343390D02*
X255952381Y-149295771D01*
X255952381Y-149295771D02*
X255761905Y-149295771D01*
X255761905Y-149295771D02*
X255666667Y-149343390D01*
X255666667Y-149343390D02*
X255619048Y-149391009D01*
X255619048Y-149391009D02*
X255571429Y-149486247D01*
X234574833Y-172030819D02*
X234241500Y-171554628D01*
X234003405Y-172030819D02*
X234003405Y-171030819D01*
X234003405Y-171030819D02*
X234384357Y-171030819D01*
X234384357Y-171030819D02*
X234479595Y-171078438D01*
X234479595Y-171078438D02*
X234527214Y-171126057D01*
X234527214Y-171126057D02*
X234574833Y-171221295D01*
X234574833Y-171221295D02*
X234574833Y-171364152D01*
X234574833Y-171364152D02*
X234527214Y-171459390D01*
X234527214Y-171459390D02*
X234479595Y-171507009D01*
X234479595Y-171507009D02*
X234384357Y-171554628D01*
X234384357Y-171554628D02*
X234003405Y-171554628D01*
X234955786Y-171126057D02*
X235003405Y-171078438D01*
X235003405Y-171078438D02*
X235098643Y-171030819D01*
X235098643Y-171030819D02*
X235336738Y-171030819D01*
X235336738Y-171030819D02*
X235431976Y-171078438D01*
X235431976Y-171078438D02*
X235479595Y-171126057D01*
X235479595Y-171126057D02*
X235527214Y-171221295D01*
X235527214Y-171221295D02*
X235527214Y-171316533D01*
X235527214Y-171316533D02*
X235479595Y-171459390D01*
X235479595Y-171459390D02*
X234908167Y-172030819D01*
X234908167Y-172030819D02*
X235527214Y-172030819D01*
X237885580Y-176796166D02*
X237933200Y-176843785D01*
X237933200Y-176843785D02*
X237980819Y-176986642D01*
X237980819Y-176986642D02*
X237980819Y-177081880D01*
X237980819Y-177081880D02*
X237933200Y-177224737D01*
X237933200Y-177224737D02*
X237837961Y-177319975D01*
X237837961Y-177319975D02*
X237742723Y-177367594D01*
X237742723Y-177367594D02*
X237552247Y-177415213D01*
X237552247Y-177415213D02*
X237409390Y-177415213D01*
X237409390Y-177415213D02*
X237218914Y-177367594D01*
X237218914Y-177367594D02*
X237123676Y-177319975D01*
X237123676Y-177319975D02*
X237028438Y-177224737D01*
X237028438Y-177224737D02*
X236980819Y-177081880D01*
X236980819Y-177081880D02*
X236980819Y-176986642D01*
X236980819Y-176986642D02*
X237028438Y-176843785D01*
X237028438Y-176843785D02*
X237076057Y-176796166D01*
X237076057Y-176415213D02*
X237028438Y-176367594D01*
X237028438Y-176367594D02*
X236980819Y-176272356D01*
X236980819Y-176272356D02*
X236980819Y-176034261D01*
X236980819Y-176034261D02*
X237028438Y-175939023D01*
X237028438Y-175939023D02*
X237076057Y-175891404D01*
X237076057Y-175891404D02*
X237171295Y-175843785D01*
X237171295Y-175843785D02*
X237266533Y-175843785D01*
X237266533Y-175843785D02*
X237409390Y-175891404D01*
X237409390Y-175891404D02*
X237980819Y-176462832D01*
X237980819Y-176462832D02*
X237980819Y-175843785D01*
X237559095Y-168744819D02*
X237559095Y-169554342D01*
X237559095Y-169554342D02*
X237606714Y-169649580D01*
X237606714Y-169649580D02*
X237654333Y-169697200D01*
X237654333Y-169697200D02*
X237749571Y-169744819D01*
X237749571Y-169744819D02*
X237940047Y-169744819D01*
X237940047Y-169744819D02*
X238035285Y-169697200D01*
X238035285Y-169697200D02*
X238082904Y-169649580D01*
X238082904Y-169649580D02*
X238130523Y-169554342D01*
X238130523Y-169554342D02*
X238130523Y-168744819D01*
X239130523Y-169744819D02*
X238559095Y-169744819D01*
X238844809Y-169744819D02*
X238844809Y-168744819D01*
X238844809Y-168744819D02*
X238749571Y-168887676D01*
X238749571Y-168887676D02*
X238654333Y-168982914D01*
X238654333Y-168982914D02*
X238559095Y-169030533D01*
X237283819Y-174268399D02*
X237521914Y-174268399D01*
X237426676Y-174506494D02*
X237521914Y-174268399D01*
X237521914Y-174268399D02*
X237426676Y-174030304D01*
X237712390Y-174411256D02*
X237521914Y-174268399D01*
X237521914Y-174268399D02*
X237712390Y-174125542D01*
X237283819Y-174268399D02*
X237521914Y-174268399D01*
X237426676Y-174506494D02*
X237521914Y-174268399D01*
X237521914Y-174268399D02*
X237426676Y-174030304D01*
X237712390Y-174411256D02*
X237521914Y-174268399D01*
X237521914Y-174268399D02*
X237712390Y-174125542D01*
X234574833Y-174791819D02*
X234241500Y-174315628D01*
X234003405Y-174791819D02*
X234003405Y-173791819D01*
X234003405Y-173791819D02*
X234384357Y-173791819D01*
X234384357Y-173791819D02*
X234479595Y-173839438D01*
X234479595Y-173839438D02*
X234527214Y-173887057D01*
X234527214Y-173887057D02*
X234574833Y-173982295D01*
X234574833Y-173982295D02*
X234574833Y-174125152D01*
X234574833Y-174125152D02*
X234527214Y-174220390D01*
X234527214Y-174220390D02*
X234479595Y-174268009D01*
X234479595Y-174268009D02*
X234384357Y-174315628D01*
X234384357Y-174315628D02*
X234003405Y-174315628D01*
X235527214Y-174791819D02*
X234955786Y-174791819D01*
X235241500Y-174791819D02*
X235241500Y-173791819D01*
X235241500Y-173791819D02*
X235146262Y-173934676D01*
X235146262Y-173934676D02*
X235051024Y-174029914D01*
X235051024Y-174029914D02*
X234955786Y-174077533D01*
X254190476Y-94914819D02*
X254190476Y-95629104D01*
X254190476Y-95629104D02*
X254142857Y-95771961D01*
X254142857Y-95771961D02*
X254047619Y-95867200D01*
X254047619Y-95867200D02*
X253904762Y-95914819D01*
X253904762Y-95914819D02*
X253809524Y-95914819D01*
X255190476Y-95914819D02*
X254619048Y-95914819D01*
X254904762Y-95914819D02*
X254904762Y-94914819D01*
X254904762Y-94914819D02*
X254809524Y-95057676D01*
X254809524Y-95057676D02*
X254714286Y-95152914D01*
X254714286Y-95152914D02*
X254619048Y-95200533D01*
X256095238Y-94914819D02*
X255619048Y-94914819D01*
X255619048Y-94914819D02*
X255571429Y-95391009D01*
X255571429Y-95391009D02*
X255619048Y-95343390D01*
X255619048Y-95343390D02*
X255714286Y-95295771D01*
X255714286Y-95295771D02*
X255952381Y-95295771D01*
X255952381Y-95295771D02*
X256047619Y-95343390D01*
X256047619Y-95343390D02*
X256095238Y-95391009D01*
X256095238Y-95391009D02*
X256142857Y-95486247D01*
X256142857Y-95486247D02*
X256142857Y-95724342D01*
X256142857Y-95724342D02*
X256095238Y-95819580D01*
X256095238Y-95819580D02*
X256047619Y-95867200D01*
X256047619Y-95867200D02*
X255952381Y-95914819D01*
X255952381Y-95914819D02*
X255714286Y-95914819D01*
X255714286Y-95914819D02*
X255619048Y-95867200D01*
X255619048Y-95867200D02*
X255571429Y-95819580D01*
D10*
X163957419Y-135333333D02*
X164671704Y-135333333D01*
X164671704Y-135333333D02*
X164814561Y-135380952D01*
X164814561Y-135380952D02*
X164909800Y-135476190D01*
X164909800Y-135476190D02*
X164957419Y-135619047D01*
X164957419Y-135619047D02*
X164957419Y-135714285D01*
X164052657Y-134904761D02*
X164005038Y-134857142D01*
X164005038Y-134857142D02*
X163957419Y-134761904D01*
X163957419Y-134761904D02*
X163957419Y-134523809D01*
X163957419Y-134523809D02*
X164005038Y-134428571D01*
X164005038Y-134428571D02*
X164052657Y-134380952D01*
X164052657Y-134380952D02*
X164147895Y-134333333D01*
X164147895Y-134333333D02*
X164243133Y-134333333D01*
X164243133Y-134333333D02*
X164385990Y-134380952D01*
X164385990Y-134380952D02*
X164957419Y-134952380D01*
X164957419Y-134952380D02*
X164957419Y-134333333D01*
D11*
X248134819Y-108333333D02*
X248849104Y-108333333D01*
X248849104Y-108333333D02*
X248991961Y-108380952D01*
X248991961Y-108380952D02*
X249087200Y-108476190D01*
X249087200Y-108476190D02*
X249134819Y-108619047D01*
X249134819Y-108619047D02*
X249134819Y-108714285D01*
X248134819Y-107952380D02*
X248134819Y-107333333D01*
X248134819Y-107333333D02*
X248515771Y-107666666D01*
X248515771Y-107666666D02*
X248515771Y-107523809D01*
X248515771Y-107523809D02*
X248563390Y-107428571D01*
X248563390Y-107428571D02*
X248611009Y-107380952D01*
X248611009Y-107380952D02*
X248706247Y-107333333D01*
X248706247Y-107333333D02*
X248944342Y-107333333D01*
X248944342Y-107333333D02*
X249039580Y-107380952D01*
X249039580Y-107380952D02*
X249087200Y-107428571D01*
X249087200Y-107428571D02*
X249134819Y-107523809D01*
X249134819Y-107523809D02*
X249134819Y-107809523D01*
X249134819Y-107809523D02*
X249087200Y-107904761D01*
X249087200Y-107904761D02*
X249039580Y-107952380D01*
X234624833Y-169522580D02*
X234577214Y-169570200D01*
X234577214Y-169570200D02*
X234434357Y-169617819D01*
X234434357Y-169617819D02*
X234339119Y-169617819D01*
X234339119Y-169617819D02*
X234196262Y-169570200D01*
X234196262Y-169570200D02*
X234101024Y-169474961D01*
X234101024Y-169474961D02*
X234053405Y-169379723D01*
X234053405Y-169379723D02*
X234005786Y-169189247D01*
X234005786Y-169189247D02*
X234005786Y-169046390D01*
X234005786Y-169046390D02*
X234053405Y-168855914D01*
X234053405Y-168855914D02*
X234101024Y-168760676D01*
X234101024Y-168760676D02*
X234196262Y-168665438D01*
X234196262Y-168665438D02*
X234339119Y-168617819D01*
X234339119Y-168617819D02*
X234434357Y-168617819D01*
X234434357Y-168617819D02*
X234577214Y-168665438D01*
X234577214Y-168665438D02*
X234624833Y-168713057D01*
X234958167Y-168617819D02*
X235577214Y-168617819D01*
X235577214Y-168617819D02*
X235243881Y-168998771D01*
X235243881Y-168998771D02*
X235386738Y-168998771D01*
X235386738Y-168998771D02*
X235481976Y-169046390D01*
X235481976Y-169046390D02*
X235529595Y-169094009D01*
X235529595Y-169094009D02*
X235577214Y-169189247D01*
X235577214Y-169189247D02*
X235577214Y-169427342D01*
X235577214Y-169427342D02*
X235529595Y-169522580D01*
X235529595Y-169522580D02*
X235481976Y-169570200D01*
X235481976Y-169570200D02*
X235386738Y-169617819D01*
X235386738Y-169617819D02*
X235101024Y-169617819D01*
X235101024Y-169617819D02*
X235005786Y-169570200D01*
X235005786Y-169570200D02*
X234958167Y-169522580D01*
X243285333Y-176761580D02*
X243237714Y-176809200D01*
X243237714Y-176809200D02*
X243094857Y-176856819D01*
X243094857Y-176856819D02*
X242999619Y-176856819D01*
X242999619Y-176856819D02*
X242856762Y-176809200D01*
X242856762Y-176809200D02*
X242761524Y-176713961D01*
X242761524Y-176713961D02*
X242713905Y-176618723D01*
X242713905Y-176618723D02*
X242666286Y-176428247D01*
X242666286Y-176428247D02*
X242666286Y-176285390D01*
X242666286Y-176285390D02*
X242713905Y-176094914D01*
X242713905Y-176094914D02*
X242761524Y-175999676D01*
X242761524Y-175999676D02*
X242856762Y-175904438D01*
X242856762Y-175904438D02*
X242999619Y-175856819D01*
X242999619Y-175856819D02*
X243094857Y-175856819D01*
X243094857Y-175856819D02*
X243237714Y-175904438D01*
X243237714Y-175904438D02*
X243285333Y-175952057D01*
X244142476Y-176190152D02*
X244142476Y-176856819D01*
X243904381Y-175809200D02*
X243666286Y-176523485D01*
X243666286Y-176523485D02*
X244285333Y-176523485D01*
%TO.C,A3*%
D10*
X178250000Y-129920000D02*
X180790000Y-129920000D01*
X180790000Y-140080000D01*
X178250000Y-140080000D01*
X178250000Y-129920000D01*
X178250000Y-129920000D02*
X190950000Y-129920000D01*
X190950000Y-140080000D01*
X178250000Y-140080000D01*
X178250000Y-129920000D01*
%TO.C,C1*%
D12*
X240696248Y-165967000D02*
X242118752Y-165967000D01*
X240696248Y-167787000D02*
X242118752Y-167787000D01*
%TO.C,J5*%
X160280000Y-156800000D02*
X170320000Y-156800000D01*
X160280000Y-159160000D02*
X160280000Y-156800000D01*
X160280000Y-167200000D02*
X160280000Y-159760000D01*
X160900000Y-156800000D02*
X160900000Y-167200000D01*
X162400000Y-156800000D02*
X162400000Y-167200000D01*
X167300000Y-156800000D02*
X167300000Y-167200000D01*
X170320000Y-156800000D02*
X170320000Y-167200000D01*
X170320000Y-167200000D02*
X160280000Y-167200000D01*
%TO.C,J14*%
X200940000Y-115150000D02*
X201550000Y-115150000D01*
X200940000Y-116450000D02*
X201550000Y-116450000D01*
X201550000Y-113650000D02*
X201550000Y-117150000D01*
X201550000Y-117150000D02*
X203500000Y-117150000D01*
X203500000Y-117150000D02*
X203500000Y-117760000D01*
X203900000Y-114150000D02*
X203900000Y-113650000D01*
X204000000Y-113650000D02*
X204000000Y-114150000D01*
X204100000Y-113650000D02*
X204100000Y-114150000D01*
X204100000Y-114150000D02*
X203900000Y-114150000D01*
X205900000Y-114150000D02*
X205900000Y-113650000D01*
X206000000Y-113650000D02*
X206000000Y-114150000D01*
X206100000Y-113650000D02*
X206100000Y-114150000D01*
X206100000Y-114150000D02*
X205900000Y-114150000D01*
X207900000Y-114150000D02*
X207900000Y-113650000D01*
X208000000Y-113650000D02*
X208000000Y-114150000D01*
X208100000Y-113650000D02*
X208100000Y-114150000D01*
X208100000Y-114150000D02*
X207900000Y-114150000D01*
X209900000Y-114150000D02*
X209900000Y-113650000D01*
X210000000Y-113650000D02*
X210000000Y-114150000D01*
X210100000Y-113650000D02*
X210100000Y-114150000D01*
X210100000Y-114150000D02*
X209900000Y-114150000D01*
X211900000Y-114150000D02*
X211900000Y-113650000D01*
X212000000Y-113650000D02*
X212000000Y-114150000D01*
X212100000Y-113650000D02*
X212100000Y-114150000D01*
X212100000Y-114150000D02*
X211900000Y-114150000D01*
X213900000Y-114150000D02*
X213900000Y-113650000D01*
X214000000Y-113650000D02*
X214000000Y-114150000D01*
X214100000Y-113650000D02*
X214100000Y-114150000D01*
X214100000Y-114150000D02*
X213900000Y-114150000D01*
X215900000Y-114150000D02*
X215900000Y-113650000D01*
X216000000Y-113650000D02*
X216000000Y-114150000D01*
X216100000Y-113650000D02*
X216100000Y-114150000D01*
X216100000Y-114150000D02*
X215900000Y-114150000D01*
X216500000Y-117150000D02*
X218450000Y-117150000D01*
X216500000Y-117760000D02*
X216500000Y-117150000D01*
X217300000Y-117760000D02*
X217300000Y-117960000D01*
X217300000Y-117860000D02*
X217600000Y-117860000D01*
X217300000Y-117960000D02*
X217600000Y-117960000D01*
X217600000Y-117960000D02*
X217600000Y-117760000D01*
X218110000Y-118060000D02*
X219360000Y-118060000D01*
X218450000Y-113650000D02*
X201550000Y-113650000D01*
X218450000Y-117150000D02*
X218450000Y-113650000D01*
X219060000Y-115150000D02*
X218450000Y-115150000D01*
X219060000Y-116450000D02*
X218450000Y-116450000D01*
X219360000Y-118060000D02*
X219360000Y-116810000D01*
X200940000Y-113040000D02*
X219060000Y-113040000D01*
X219060000Y-117760000D01*
X200940000Y-117760000D01*
X200940000Y-113040000D01*
%TO.C,J17*%
X163620000Y-170890000D02*
X163620000Y-168240000D01*
X166380000Y-168240000D02*
X163620000Y-168240000D01*
X166380000Y-170890000D02*
X163620000Y-170890000D01*
X166380000Y-170890000D02*
X166380000Y-168240000D01*
X166380000Y-172160000D02*
X166380000Y-173540000D01*
X166380000Y-173540000D02*
X165000000Y-173540000D01*
%TO.C,A2*%
D10*
X199840000Y-91820000D02*
X199840000Y-91820000D01*
G75*
G02*
X202380000Y-89280000I2540000J0D01*
G01*
X217620000Y-89280000D01*
G75*
G02*
X220160000Y-91820000I0J-2540000D01*
G01*
X220160000Y-107060000D01*
G75*
G02*
X217620000Y-109600000I-2540000J0D01*
G01*
X202380000Y-109600000D01*
G75*
G02*
X199840000Y-107060000I0J2540000D01*
G01*
X199840000Y-91820000D01*
X201110000Y-105790000D02*
X218890000Y-105790000D01*
X218890000Y-108330000D01*
X201110000Y-108330000D01*
X201110000Y-105790000D01*
%TO.C,R3*%
D12*
X234486776Y-167243500D02*
X234996224Y-167243500D01*
X234486776Y-168288500D02*
X234996224Y-168288500D01*
%TO.C,L1*%
X242886001Y-175296000D02*
X242886001Y-170988000D01*
X247194001Y-170988000D02*
X247194001Y-175296000D01*
%TO.C,J6*%
X160280000Y-102800000D02*
X170320000Y-102800000D01*
X160280000Y-105160000D02*
X160280000Y-102800000D01*
X160280000Y-113200000D02*
X160280000Y-105760000D01*
X160900000Y-102800000D02*
X160900000Y-113200000D01*
X162400000Y-102800000D02*
X162400000Y-113200000D01*
X167300000Y-102800000D02*
X167300000Y-113200000D01*
X170320000Y-102800000D02*
X170320000Y-113200000D01*
X170320000Y-113200000D02*
X160280000Y-113200000D01*
%TO.C,A1*%
D10*
X203650000Y-140080000D02*
X216350000Y-140080000D01*
X216350000Y-142620000D01*
X203650000Y-142620000D01*
X203650000Y-140080000D01*
X198570000Y-127380000D02*
X221430000Y-127380000D01*
X221430000Y-129920000D01*
X198570000Y-129920000D01*
X198570000Y-127380000D01*
%TO.C,J18*%
D12*
X163620000Y-116890000D02*
X163620000Y-114240000D01*
X166380000Y-114240000D02*
X163620000Y-114240000D01*
X166380000Y-116890000D02*
X163620000Y-116890000D01*
X166380000Y-116890000D02*
X166380000Y-114240000D01*
X166380000Y-118160000D02*
X166380000Y-119540000D01*
X166380000Y-119540000D02*
X165000000Y-119540000D01*
%TO.C,J4*%
X249680000Y-156800000D02*
X259720000Y-156800000D01*
X249680000Y-167200000D02*
X249680000Y-156800000D01*
X252700000Y-167200000D02*
X252700000Y-156800000D01*
X257600000Y-167200000D02*
X257600000Y-156800000D01*
X259100000Y-167200000D02*
X259100000Y-156800000D01*
X259720000Y-156800000D02*
X259720000Y-164240000D01*
X259720000Y-164840000D02*
X259720000Y-167200000D01*
X259720000Y-167200000D02*
X249680000Y-167200000D01*
%TO.C,J8*%
X242910000Y-129810000D02*
X244290000Y-129810000D01*
X242910000Y-131190000D02*
X242910000Y-129810000D01*
X242910000Y-132460000D02*
X242910000Y-140190000D01*
X242910000Y-132460000D02*
X245670000Y-132460000D01*
X242910000Y-140190000D02*
X245670000Y-140190000D01*
X245670000Y-132460000D02*
X245670000Y-140190000D01*
%TO.C,J16*%
X253620000Y-150460000D02*
X255000000Y-150460000D01*
X253620000Y-151840000D02*
X253620000Y-150460000D01*
X253620000Y-153110000D02*
X253620000Y-155760000D01*
X253620000Y-153110000D02*
X256380000Y-153110000D01*
X253620000Y-155760000D02*
X256380000Y-155760000D01*
X256380000Y-153110000D02*
X256380000Y-155760000D01*
%TO.C,R2*%
X234486776Y-172323500D02*
X234996224Y-172323500D01*
X234486776Y-173368500D02*
X234996224Y-173368500D01*
%TO.C,C2*%
X238446000Y-176775767D02*
X238446000Y-176483233D01*
X239466000Y-176775767D02*
X239466000Y-176483233D01*
D13*
%TO.C,U1*%
G36*
X239650500Y-169772600D02*
G01*
X239269499Y-169772600D01*
X239269499Y-169518600D01*
X239650500Y-169518600D01*
X239650500Y-169772600D01*
G37*
%TO.C,R1*%
D12*
X234486776Y-175244500D02*
X234996224Y-175244500D01*
X234486776Y-176289500D02*
X234996224Y-176289500D01*
%TO.C,J15*%
X253620000Y-96460000D02*
X255000000Y-96460000D01*
X253620000Y-97840000D02*
X253620000Y-96460000D01*
X253620000Y-99110000D02*
X253620000Y-101760000D01*
X253620000Y-99110000D02*
X256380000Y-99110000D01*
X253620000Y-101760000D02*
X256380000Y-101760000D01*
X256380000Y-99110000D02*
X256380000Y-101760000D01*
%TO.C,J3*%
X249680000Y-102800000D02*
X259720000Y-102800000D01*
X249680000Y-113200000D02*
X249680000Y-102800000D01*
X252700000Y-113200000D02*
X252700000Y-102800000D01*
X257600000Y-113200000D02*
X257600000Y-102800000D01*
X259100000Y-113200000D02*
X259100000Y-102800000D01*
X259720000Y-102800000D02*
X259720000Y-110240000D01*
X259720000Y-110840000D02*
X259720000Y-113200000D01*
X259720000Y-113200000D02*
X249680000Y-113200000D01*
%TO.C,C3*%
X234937767Y-169796000D02*
X234645233Y-169796000D01*
X234937767Y-170816000D02*
X234645233Y-170816000D01*
%TO.C,C4*%
X244163252Y-177270000D02*
X242740748Y-177270000D01*
X244163252Y-179090000D02*
X242740748Y-179090000D01*
%TD*%
M02*
