%TF.GenerationSoftware,KiCad,Pcbnew,10.0.3*%
%TF.CreationDate,2026-09-17T20:57:44-07:00*%
%TF.ProjectId,esp32_nodemcu,65737033-325f-46e6-9f64-656d63752e6b,rev?*%
%TF.SameCoordinates,Original*%
%TF.FileFunction,Soldermask,Bot*%
%TF.FilePolarity,Negative*%
%FSLAX46Y46*%
G04 Gerber Fmt 4.6, Leading zero omitted, Abs format (unit mm)*
G04 Created by KiCad (PCBNEW 10.0.3) date 2026-09-17 20:57:44*
%MOMM*%
%LPD*%
G01*
G04 APERTURE LIST*
G04 Aperture macros list*
%AMRoundRect*
0 Rectangle with rounded corners*
0 $1 Rounding radius*
0 $2 $3 $4 $5 $6 $7 $8 $9 X,Y pos of 4 corners*
0 Add a 4 corners polygon primitive as box body*
4,1,4,$2,$3,$4,$5,$6,$7,$8,$9,$2,$3,0*
0 Add four circle primitives for the rounded corners*
1,1,$1+$1,$2,$3*
1,1,$1+$1,$4,$5*
1,1,$1+$1,$6,$7*
1,1,$1+$1,$8,$9*
0 Add four rect primitives between the rounded corners*
20,1,$1+$1,$2,$3,$4,$5,0*
20,1,$1+$1,$4,$5,$6,$7,0*
20,1,$1+$1,$6,$7,$8,$9,0*
20,1,$1+$1,$8,$9,$2,$3,0*%
G04 Aperture macros list end*
%ADD10C,1.700000*%
%ADD11RoundRect,0.250000X-1.050000X1.050000X-1.050000X-1.050000X1.050000X-1.050000X1.050000X1.050000X0*%
%ADD12C,2.600000*%
%ADD13RoundRect,0.250000X0.350000X0.625000X-0.350000X0.625000X-0.350000X-0.625000X0.350000X-0.625000X0*%
%ADD14O,1.200000X1.750000*%
%ADD15R,1.700000X1.700000*%
%ADD16C,4.100000*%
%ADD17RoundRect,0.250000X1.050000X-1.050000X1.050000X1.050000X-1.050000X1.050000X-1.050000X-1.050000X0*%
%ADD18C,3.900000*%
%ADD19C,7.000000*%
%ADD20C,1.524000*%
G04 APERTURE END LIST*
D10*
%TO.C,A3*%
X179520000Y-131190000D03*
X179520000Y-133730000D03*
X179520000Y-136270000D03*
X179520000Y-138810000D03*
%TD*%
D11*
%TO.C,J5*%
X165000000Y-159460000D03*
D12*
X165000000Y-164540000D03*
%TD*%
D13*
%TO.C,J14*%
X217000000Y-115950000D03*
D14*
X215000000Y-115950000D03*
X213000000Y-115950000D03*
X211000000Y-115950000D03*
X209000000Y-115950000D03*
X207000000Y-115950000D03*
X205000000Y-115950000D03*
X203000000Y-115950000D03*
%TD*%
D15*
%TO.C,J17*%
X165000000Y-172160000D03*
D10*
X165000000Y-169620000D03*
%TD*%
D16*
%TO.C,J1*%
X255000000Y-138810000D03*
X255000000Y-131190000D03*
%TD*%
D10*
%TO.C,A2*%
X202380000Y-107060000D03*
X204920000Y-107060000D03*
X207460000Y-107060000D03*
X210000000Y-107060000D03*
X212540000Y-107060000D03*
X215080000Y-107060000D03*
X217620000Y-107060000D03*
%TD*%
D11*
%TO.C,J6*%
X165000000Y-105460000D03*
D12*
X165000000Y-110540000D03*
%TD*%
D10*
%TO.C,A1*%
X220160000Y-128650000D03*
X217620000Y-128650000D03*
X215080000Y-128650000D03*
X212540000Y-128650000D03*
X210000000Y-128650000D03*
X207460000Y-128650000D03*
X204920000Y-128650000D03*
X202380000Y-128650000D03*
X199840000Y-128650000D03*
X215080000Y-141350000D03*
X212540000Y-141350000D03*
X210000000Y-141350000D03*
X207460000Y-141350000D03*
X204920000Y-141350000D03*
%TD*%
D15*
%TO.C,J18*%
X165000000Y-118160000D03*
D10*
X165000000Y-115620000D03*
%TD*%
D17*
%TO.C,J4*%
X255000000Y-164540000D03*
D12*
X255000000Y-159460000D03*
%TD*%
D15*
%TO.C,J8*%
X244290000Y-131190000D03*
D10*
X244290000Y-133730000D03*
X244290000Y-136270000D03*
X244290000Y-138810000D03*
%TD*%
D18*
%TO.C,H3*%
X165000000Y-180000000D03*
D19*
X165000000Y-180000000D03*
%TD*%
D15*
%TO.C,J16*%
X255000000Y-151840000D03*
D10*
X255000000Y-154380000D03*
%TD*%
D18*
%TO.C,H4*%
X255000000Y-180000000D03*
D19*
X255000000Y-180000000D03*
%TD*%
D15*
%TO.C,J15*%
X255000000Y-97840000D03*
D10*
X255000000Y-100380000D03*
%TD*%
D16*
%TO.C,J2*%
X165000000Y-138810000D03*
X165000000Y-131190000D03*
%TD*%
D18*
%TO.C,H1*%
X255000000Y-90000000D03*
D19*
X255000000Y-90000000D03*
%TD*%
D17*
%TO.C,J3*%
X255000000Y-110540000D03*
D12*
X255000000Y-105460000D03*
%TD*%
D18*
%TO.C,H2*%
X165000000Y-90000000D03*
D19*
X165000000Y-90000000D03*
%TD*%
D10*
%TO.C,J7*%
X223970000Y-137540000D03*
X223970000Y-140080000D03*
X223970000Y-142620000D03*
X223970000Y-145160000D03*
X223970000Y-147700000D03*
X223970000Y-150240000D03*
X223970000Y-152780000D03*
X223970000Y-155320000D03*
X223970000Y-157860000D03*
X223970000Y-160400000D03*
X223970000Y-162940000D03*
X223970000Y-165480000D03*
X223970000Y-168020000D03*
X223970000Y-170560000D03*
X223970000Y-173100000D03*
X223970000Y-175640000D03*
X223970000Y-178180000D03*
X223970000Y-180720000D03*
X223970000Y-183260000D03*
%TD*%
%TO.C,J9*%
X196030000Y-137540000D03*
X196030000Y-140080000D03*
X196030000Y-142620000D03*
X196030000Y-145160000D03*
X196030000Y-147700000D03*
X196030000Y-150240000D03*
X196030000Y-152780000D03*
X196030000Y-155320000D03*
X196030000Y-157860000D03*
X196030000Y-160400000D03*
X196030000Y-162940000D03*
X196030000Y-165480000D03*
X196030000Y-168020000D03*
X196030000Y-170560000D03*
X196030000Y-173100000D03*
X196030000Y-175640000D03*
X196030000Y-178180000D03*
X196030000Y-180720000D03*
X196030000Y-183260000D03*
%TD*%
D20*
%TO.C,U2*%
X221430000Y-137540000D03*
X221430000Y-140080000D03*
X221430000Y-142620000D03*
X221430000Y-145160000D03*
X221430000Y-147700000D03*
X221430000Y-150240000D03*
X221430000Y-152780000D03*
X221430000Y-155320000D03*
X221430000Y-157860000D03*
X221430000Y-160400000D03*
X221430000Y-162940000D03*
X221430000Y-165480000D03*
X221430000Y-168020000D03*
X221430000Y-170560000D03*
X221430000Y-173100000D03*
X221430000Y-175640000D03*
X221430000Y-178180000D03*
X221430000Y-180720000D03*
X221430000Y-183260000D03*
X198570000Y-183260000D03*
X198570000Y-180720000D03*
X198570000Y-178180000D03*
X198570000Y-175640000D03*
X198570000Y-173100000D03*
X198570000Y-170560000D03*
X198570000Y-168020000D03*
X198570000Y-165480000D03*
X198570000Y-162940000D03*
X198570000Y-160400000D03*
X198570000Y-157860000D03*
X198570000Y-155320000D03*
X198570000Y-152780000D03*
X198570000Y-150240000D03*
X198570000Y-147700000D03*
X198570000Y-145160000D03*
X198570000Y-142620000D03*
X198570000Y-140080000D03*
X198570000Y-137540000D03*
%TD*%
M02*
