M48
; DRILL file KiCad 10.0.3 date 2026-09-17T21:01:50
; FORMAT={-:-/ absolute / metric / decimal}
; #@! TF.CreationDate,2026-09-17T21:01:50-07:00
; #@! TF.GenerationSoftware,Kicad,Pcbnew,10.0.3
; #@! TF.FileFunction,Plated,1,2,PTH
FMAT,2
METRIC
; #@! TA.AperFunction,Plated,PTH,ViaDrill
T1C0.300
; #@! TA.AperFunction,Plated,PTH,ViaDrill
T2C0.500
; #@! TA.AperFunction,Plated,PTH,ComponentDrill
T3C0.750
; #@! TA.AperFunction,Plated,PTH,ComponentDrill
T4C0.762
; #@! TA.AperFunction,Plated,PTH,ComponentDrill
T5C1.000
; #@! TA.AperFunction,Plated,PTH,ComponentDrill
T6C1.300
; #@! TA.AperFunction,Plated,PTH,ComponentDrill
T7C2.540
; #@! TA.AperFunction,Plated,PTH,ComponentDrill
T8C2.700
; #@! TA.AperFunction,Plated,PTH,ComponentDrill
T9C3.500
%
G90
G05
T1
X174.44Y-115.62
X175.71Y-118.16
X201.11Y-138.81
X201.11Y-141.35
X215.08Y-104.52
X216.35Y-103.25
X218.89Y-142.62
X218.89Y-147.7
X226.51Y-150.24
X226.51Y-157.86
X229.05Y-147.7
X229.05Y-155.32
X230.828Y-179.196
X230.828Y-180.212
X230.828Y-181.228
X231.844Y-173.1
X231.844Y-174.116
X231.844Y-175.132
X231.844Y-176.148
X231.844Y-177.164
X231.844Y-178.18
X231.844Y-179.196
X231.844Y-180.212
X231.844Y-181.228
X232.86Y-174.116
X232.86Y-177.164
X232.86Y-178.18
X232.86Y-179.196
X232.86Y-180.212
X232.86Y-181.228
X233.876Y-177.164
X233.876Y-178.18
X233.876Y-179.196
X233.876Y-180.212
X233.876Y-181.228
X234.892Y-174.243
X234.892Y-177.164
X234.892Y-178.18
X234.892Y-179.196
X234.892Y-180.212
X234.892Y-181.228
X235.654Y-174.243
X235.908Y-177.164
X235.908Y-178.18
X235.908Y-179.196
X235.908Y-180.212
X235.908Y-181.228
X236.67Y-171.705
X236.924Y-177.164
X236.924Y-178.18
X236.924Y-179.196
X236.924Y-180.212
X236.924Y-181.228
X237.94Y-179.196
X237.94Y-180.212
X237.94Y-181.228
X238.829Y-171.449
X238.829Y-172.211
X238.956Y-179.196
X238.956Y-180.212
X238.956Y-181.228
X239.083Y-163.575
X239.083Y-164.337
X239.083Y-165.099
X239.591Y-171.449
X239.591Y-172.211
X239.845Y-163.575
X239.845Y-164.337
X239.845Y-165.099
X240.226Y-174.624
X240.607Y-163.575
X240.607Y-164.337
X240.607Y-165.099
X240.988Y-174.624
X242.004Y-169.036
X242.004Y-170.052
X243.02Y-163.956
X243.02Y-164.972
X243.02Y-169.036
X243.02Y-170.052
X244.036Y-163.956
X244.036Y-164.972
X244.036Y-169.036
X244.036Y-170.052
X244.036Y-180.466
X244.29Y-151.84
X244.798Y-179.704
X244.798Y-180.466
X245.052Y-163.956
X245.052Y-164.972
X245.052Y-165.988
X245.052Y-167.004
X245.052Y-168.02
X245.052Y-169.036
X245.052Y-170.052
X245.56Y-154.38
X245.56Y-179.704
X245.56Y-180.466
X246.068Y-163.956
X246.068Y-164.972
X246.068Y-165.988
X246.068Y-167.004
X246.068Y-168.02
X246.068Y-169.036
X246.068Y-170.052
X246.322Y-177.418
X246.322Y-178.18
X246.322Y-178.942
X246.322Y-179.704
X246.322Y-180.466
T2
X202.38Y-109.6
X202.38Y-113.41
X220.16Y-121.03
X220.16Y-125.295
X231.585Y-135.0
X235.4Y-138.81
X235.4Y-146.43
T3
X203.0Y-115.95
X205.0Y-115.95
X207.0Y-115.95
X209.0Y-115.95
X211.0Y-115.95
X213.0Y-115.95
X215.0Y-115.95
X217.0Y-115.95
T4
X198.57Y-137.54
X198.57Y-140.08
X198.57Y-142.62
X198.57Y-145.16
X198.57Y-147.7
X198.57Y-150.24
X198.57Y-152.78
X198.57Y-155.32
X198.57Y-157.86
X198.57Y-160.4
X198.57Y-162.94
X198.57Y-165.48
X198.57Y-168.02
X198.57Y-170.56
X198.57Y-173.1
X198.57Y-175.64
X198.57Y-178.18
X198.57Y-180.72
X198.57Y-183.26
X221.43Y-137.54
X221.43Y-140.08
X221.43Y-142.62
X221.43Y-145.16
X221.43Y-147.7
X221.43Y-150.24
X221.43Y-152.78
X221.43Y-155.32
X221.43Y-157.86
X221.43Y-160.4
X221.43Y-162.94
X221.43Y-165.48
X221.43Y-168.02
X221.43Y-170.56
X221.43Y-173.1
X221.43Y-175.64
X221.43Y-178.18
X221.43Y-180.72
X221.43Y-183.26
T5
X165.0Y-115.62
X165.0Y-118.16
X165.0Y-169.62
X165.0Y-172.16
X179.52Y-131.19
X179.52Y-133.73
X179.52Y-136.27
X179.52Y-138.81
X196.03Y-137.54
X196.03Y-140.08
X196.03Y-142.62
X196.03Y-145.16
X196.03Y-147.7
X196.03Y-150.24
X196.03Y-152.78
X196.03Y-155.32
X196.03Y-157.86
X196.03Y-160.4
X196.03Y-162.94
X196.03Y-165.48
X196.03Y-168.02
X196.03Y-170.56
X196.03Y-173.1
X196.03Y-175.64
X196.03Y-178.18
X196.03Y-180.72
X196.03Y-183.26
X199.84Y-128.65
X202.38Y-107.06
X202.38Y-128.65
X204.92Y-107.06
X204.92Y-128.65
X204.92Y-141.35
X207.46Y-107.06
X207.46Y-128.65
X207.46Y-141.35
X210.0Y-107.06
X210.0Y-128.65
X210.0Y-141.35
X212.54Y-107.06
X212.54Y-128.65
X212.54Y-141.35
X215.08Y-107.06
X215.08Y-128.65
X215.08Y-141.35
X217.62Y-107.06
X217.62Y-128.65
X220.16Y-128.65
X223.97Y-137.54
X223.97Y-140.08
X223.97Y-142.62
X223.97Y-145.16
X223.97Y-147.7
X223.97Y-150.24
X223.97Y-152.78
X223.97Y-155.32
X223.97Y-157.86
X223.97Y-160.4
X223.97Y-162.94
X223.97Y-165.48
X223.97Y-168.02
X223.97Y-170.56
X223.97Y-173.1
X223.97Y-175.64
X223.97Y-178.18
X223.97Y-180.72
X223.97Y-183.26
X244.29Y-131.19
X244.29Y-133.73
X244.29Y-136.27
X244.29Y-138.81
X255.0Y-97.84
X255.0Y-100.38
X255.0Y-151.84
X255.0Y-154.38
T6
X165.0Y-105.46
X165.0Y-110.54
X165.0Y-159.46
X165.0Y-164.54
X255.0Y-105.46
X255.0Y-110.54
X255.0Y-159.46
X255.0Y-164.54
T7
X165.0Y-138.81
X255.0Y-138.81
T8
X165.0Y-131.19
X255.0Y-131.19
T9
X165.0Y-90.0
X165.0Y-180.0
X255.0Y-90.0
X255.0Y-180.0
M30
